<svg viewBox="0 0 77.1206 80" xmlns="http://www.w3.org/2000/svg" xmlns:xlink="http://www.w3.org/1999/xlink" width="77.120605" height="80.000000" fill="none" customFrame="#000000">
	<g id="Group">
		<g id="Group">
			<g id="Group">
				<path id="Vector" d="M70.2797 8.67794C70.1163 8.6713 69.9526 8.67019 69.789 8.6748L63.6203 8.6748L63.6203 3.37354C63.6205 1.25304 61.5963 0 59.4758 0L53.7891 0C51.6686 0 50.1265 1.25304 50.1265 3.37354L50.1265 8.67462L26.9939 8.67462L26.9939 3.37354C26.9939 1.25304 25.4518 0 23.3313 0L17.6444 0C15.5241 0 13.4999 1.25304 13.4999 3.37354L13.4999 8.67462L7.3314 8.67462C3.39369 8.56485 0.112572 11.6681 0.00280184 15.6056C-0.00181036 15.7691 -0.000703396 15.9329 0.00593816 16.0964L0.00593816 71.8071C0.00593816 76.0481 3.0902 79.9998 7.33121 79.9998L69.7892 79.9998C74.0302 79.9998 77.1145 76.0481 77.1145 71.8071L77.1145 16.0964C77.2757 12.1605 74.2156 8.83918 70.2797 8.67794ZM53.7891 3.85543L59.765 3.85543L59.765 14.4578L53.7891 14.4578L53.7891 3.85543ZM17.6446 3.85543L23.1387 3.85543L23.1387 14.4578L17.6446 14.4578L17.6446 3.85543ZM73.259 71.8071C73.259 73.9276 71.9097 76.1444 69.7892 76.1444L7.3314 76.1444C5.21089 76.1444 3.86155 73.9276 3.86155 71.8071L3.86155 30.8434L73.259 30.8434L73.259 71.8071ZM73.259 16.0964L73.259 26.988L3.86136 26.988L3.86136 16.0964C3.69809 14.2939 5.02696 12.7003 6.8294 12.5371C6.99618 12.5219 7.16406 12.5197 7.33121 12.5302L13.4999 12.5302L13.4999 14.6507C13.4999 16.7712 15.5239 18.3134 17.6444 18.3134L23.3313 18.3134C25.3001 18.3674 26.9399 16.815 26.9939 14.8461C26.9958 14.781 26.9958 14.7159 26.9939 14.6507L26.9939 12.53L50.1265 12.53L50.1265 14.6505C50.0724 16.6194 51.6249 18.2591 53.5937 18.3132C53.6589 18.315 53.724 18.315 53.7891 18.3132L59.476 18.3132C61.5965 18.3132 63.6205 16.771 63.6205 14.6505L63.6205 12.53L69.7892 12.53C71.5955 12.4162 73.152 13.7883 73.2659 15.5946C73.2764 15.7617 73.2742 15.9296 73.259 16.0964Z" fill="rgb(255,255,255)" fill-rule="nonzero" />
				<path id="Vector" d="M27.8619 57.1569L26.1269 66.7955C26.0583 67.2089 26.1262 67.6336 26.3205 68.005C26.814 68.9483 27.9788 69.313 28.9221 68.8195L37.5967 64.2894L46.2713 68.8195L47.1388 69.0123C47.557 69.0197 47.9653 68.8835 48.2953 68.6267C48.8715 68.2059 49.168 67.5015 49.0665 66.7953L47.3316 57.1567L54.3678 50.4098C54.8712 49.8658 55.0539 49.0983 54.8496 48.3858C54.5901 47.7272 54.0052 47.2522 53.3075 47.1328L43.669 45.687L39.3316 36.9159C39.1425 36.5255 38.8274 36.2102 38.4371 36.0213C37.4788 35.5573 36.326 35.9578 35.8618 36.9159L31.5245 45.687L21.8859 47.1328C21.1882 47.252 20.6034 47.7272 20.3438 48.3858C20.1396 49.0983 20.3224 49.8658 20.8257 50.4098L27.8619 57.1569ZM33.1631 49.3498C33.7684 49.2592 34.2813 48.8563 34.5125 48.2895L37.5967 42.1208L40.681 48.2895C40.9123 48.8563 41.425 49.2592 42.0303 49.3498L48.8737 50.3135L43.958 55.0364C43.5001 55.4897 43.2854 56.1339 43.3797 56.7713L44.5362 63.6147L38.464 60.3377L37.5965 60.1449L36.7291 60.3377L30.6569 63.6147L31.8134 56.7713C31.9079 56.1339 31.6929 55.4897 31.235 55.0364L26.3194 50.3135L33.1631 49.3498Z" fill="rgb(255,255,255)" fill-rule="nonzero" />
			</g>
		</g>
	</g>
</svg>
