<svg viewBox="0 0 80 80" xmlns="http://www.w3.org/2000/svg" xmlns:xlink="http://www.w3.org/1999/xlink" width="80.000000" height="80.000000" fill="none">
	<rect id="tools-and-utensils (1) 1" width="80.000000" height="80.000000" x="0.000000" y="0.000000" fill="rgb(255,255,255)" fill-opacity="0" />
	<g id="Group">
		<g id="Group">
			<path id="Vector" d="M74.0906 12.727C68.3675 12.727 63.7115 8.07094 63.7115 2.34812L63.7115 0L16.2886 0L16.2886 2.34812C16.2886 8.07125 11.6325 12.727 5.90965 12.727L3.56152 12.727L3.56152 28.3423C3.56152 39.5634 6.94168 50.3683 13.337 59.5886C19.7323 68.8087 28.6678 75.7606 39.1775 79.6922L40.0001 80L40.8229 79.6922C51.3328 75.7606 60.2682 68.8089 66.6632 59.5886C73.0586 50.3683 76.4387 39.5634 76.4387 28.3423L76.4387 12.727L74.0906 12.727ZM71.7426 28.3423L71.7425 28.3423C71.7425 38.6023 68.6517 48.4814 62.8042 56.9119C57.1247 65.1006 49.2531 71.3327 40 74.9775C30.747 71.3325 22.8753 65.1006 17.1957 56.9119C11.3484 48.4816 8.25777 38.6023 8.25777 28.3423L8.25777 17.2408C14.6937 16.2298 19.7914 11.1322 20.8023 4.69625L59.1981 4.69625C60.2089 11.1322 65.3065 16.2298 71.7426 17.2408L71.7426 28.3423Z" fill="rgb(255,255,255)" fill-rule="nonzero" />
		</g>
	</g>
	<g id="Group">
		<g id="Group">
			<path id="Vector" d="M50.4772 22.0605L34.9339 37.604L29.5213 32.1913L19.5591 42.1537L34.9339 57.5286L60.4394 32.0229L50.4772 22.0605ZM26.2006 42.154L29.5214 38.8332L34.9341 44.2459L50.4774 28.7024L53.7981 32.0232L34.9341 50.8873L26.2006 42.154Z" fill="rgb(255,255,255)" fill-rule="nonzero" />
		</g>
	</g>
</svg>
